<svg width="344" height="262" viewBox="0 0 344 262" fill="none" xmlns="http://www.w3.org/2000/svg">
<path d="M280.72 8.73L279.62 11.06L267.97 5.56L262.48 17.21L260.15 16.11L265.64 4.46L258.31 1H264.35L266.74 2.13L267.27 1H270.12L269.07 3.23L280.72 8.73Z" fill="black"/>
<path d="M331.21 32.5601L319.56 27.0601L325.06 15.4101L322.73 14.3101L317.23 25.9601L305.58 20.4601L304.48 22.7901L316.13 28.2901L310.64 39.9401L312.97 41.0401L318.46 29.3901L330.11 34.8901L331.21 32.5601Z" fill="black"/>
<path d="M157.35 8.52L156.25 10.85L144.6 5.35L139.1 17L136.77 15.9L142.27 4.25L135.37 1H141.42L143.37 1.92L143.8 1H146.65L145.7 3.02L157.35 8.52Z" fill="black"/>
<path d="M207.84 32.3501L196.19 26.8501L201.68 15.2001L199.35 14.1001L193.86 25.7501L182.21 20.2601L181.11 22.5901L192.76 28.0801L187.26 39.7301L189.59 40.8301L195.09 29.1801L206.74 34.6801L207.84 32.3501Z" fill="black"/>
<path d="M258.33 56.1799L246.68 50.6799L252.18 39.0299L249.85 37.9299L244.35 49.5799L232.7 44.0799L231.6 46.4099L243.25 51.9099L237.75 63.5599L240.08 64.6599L245.58 53.0099L257.23 58.5099L258.33 56.1799Z" fill="black"/>
<path d="M308.82 80.01L297.17 74.51L302.67 62.86L300.34 61.76L294.84 73.41L283.19 67.91L282.09 70.24L293.74 75.74L288.24 87.39L290.57 88.49L296.07 76.84L307.72 82.34L308.82 80.01Z" fill="black"/>
<path d="M343 96.14V98.99L332.58 94.07L333.68 91.74L343 96.14Z" fill="black"/>
<path d="M338.73 111.22L343 102.18V108.21L341.06 112.32L338.73 111.22Z" fill="black"/>
<path d="M33.9702 8.32L32.8702 10.65L21.2202 5.15L15.7202 16.8L13.3902 15.7L18.8902 4.05L12.4302 1H18.4602L19.9902 1.72L20.3302 1H23.1802L22.3202 2.82L33.9702 8.32Z" fill="black"/>
<path d="M84.46 32.1499L72.81 26.6499L78.31 14.9999L75.98 13.8999L70.48 25.5499L58.83 20.0499L57.73 22.3799L69.38 27.8799L63.88 39.5299L66.21 40.6299L71.71 28.9799L83.36 34.4799L84.46 32.1499Z" fill="black"/>
<path d="M134.95 55.98L123.3 50.48L128.8 38.83L126.47 37.73L120.97 49.38L109.32 43.88L108.22 46.21L119.87 51.71L114.37 63.36L116.7 64.46L122.2 52.81L133.85 58.31L134.95 55.98Z" fill="black"/>
<path d="M185.44 79.8101L173.79 74.3101L179.29 62.6601L176.96 61.5601L171.46 73.2101L159.81 67.7101L158.71 70.0401L170.36 75.5401L164.86 87.1901L167.19 88.2901L172.69 76.6401L184.34 82.1401L185.44 79.8101Z" fill="black"/>
<path d="M235.93 103.64L224.28 98.1399L229.78 86.4899L227.45 85.3899L221.95 97.0399L210.3 91.5399L209.2 93.8699L220.85 99.3699L215.35 111.02L217.68 112.12L223.18 100.47L234.83 105.97L235.93 103.64Z" fill="black"/>
<path d="M286.42 127.46L274.77 121.97L280.27 110.32L277.94 109.22L272.44 120.87L260.79 115.37L259.69 117.7L271.34 123.2L265.84 134.85L268.17 135.95L273.67 124.3L285.32 129.79L286.42 127.46Z" fill="black"/>
<path d="M336.91 151.29L325.26 145.8L330.76 134.15L328.43 133.05L322.93 144.7L311.28 139.2L310.18 141.53L321.83 147.03L316.33 158.68L318.66 159.78L324.16 148.13L335.81 153.62L336.91 151.29Z" fill="black"/>
<path d="M5.42 38.62L1 47.98V41.95L3.09 37.52L5.42 38.62Z" fill="black"/>
<path d="M11.57 55.77L10.47 58.1L1 53.63V50.78L11.57 55.77Z" fill="black"/>
<path d="M62.0601 79.6001L50.4101 74.1001L55.9101 62.4501L53.5801 61.3501L48.0801 73.0001L36.4301 67.5101L35.3301 69.8401L46.9801 75.3301L41.4801 86.9801L43.8101 88.0801L49.3101 76.4301L60.9601 81.9301L62.0601 79.6001Z" fill="black"/>
<path d="M112.55 103.43L100.9 97.9299L106.4 86.2799L104.07 85.1799L98.5698 96.8299L86.9198 91.3299L85.8198 93.6599L97.4698 99.1599L91.9798 110.81L94.3098 111.91L99.7998 100.26L111.45 105.76L112.55 103.43Z" fill="black"/>
<path d="M163.04 127.26L151.39 121.76L156.89 110.11L154.56 109.01L149.06 120.66L137.41 115.16L136.31 117.49L147.96 122.99L142.47 134.64L144.8 135.74L150.29 124.09L161.94 129.59L163.04 127.26Z" fill="black"/>
<path d="M213.53 151.09L201.88 145.59L207.38 133.94L205.05 132.84L199.55 144.49L187.9 138.99L186.8 141.32L198.45 146.82L192.96 158.47L195.29 159.57L200.78 147.92L212.43 153.42L213.53 151.09Z" fill="black"/>
<path d="M264.02 174.92L252.37 169.42L257.87 157.77L255.54 156.67L250.04 168.32L238.39 162.82L237.29 165.15L248.94 170.65L243.45 182.3L245.78 183.4L251.27 171.75L262.92 177.25L264.02 174.92Z" fill="black"/>
<path d="M314.51 198.75L302.86 193.25L308.36 181.6L306.03 180.5L300.53 192.15L288.88 186.65L287.78 188.98L299.43 194.48L293.94 206.13L296.27 207.23L301.76 195.58L313.41 201.08L314.51 198.75Z" fill="black"/>
<path d="M343 212.19V215.04L338.27 212.81L339.37 210.48L343 212.19Z" fill="black"/>
<path d="M39.6699 127.06L28.0199 121.56L33.5099 109.91L31.1799 108.81L25.6899 120.46L14.0399 114.96L12.9399 117.29L24.5899 122.79L19.0899 134.44L21.4199 135.54L26.9199 123.89L38.5699 129.39L39.6699 127.06Z" fill="black"/>
<path d="M90.1602 150.89L78.5102 145.39L84.0002 133.74L81.6702 132.64L76.1802 144.29L64.5302 138.79L63.4302 141.12L75.0802 146.62L69.5802 158.27L71.9102 159.37L77.4102 147.72L89.0602 153.22L90.1602 150.89Z" fill="black"/>
<path d="M140.65 174.72L129 169.22L134.5 157.57L132.17 156.47L126.67 168.12L115.02 162.62L113.92 164.95L125.57 170.45L120.07 182.1L122.4 183.2L127.9 171.55L139.55 177.04L140.65 174.72Z" fill="black"/>
<path d="M191.14 198.54L179.49 193.05L184.99 181.4L182.66 180.3L177.16 191.95L165.51 186.45L164.41 188.78L176.06 194.28L170.56 205.93L172.89 207.03L178.39 195.38L190.04 200.87L191.14 198.54Z" fill="black"/>
<path d="M241.63 222.37L229.98 216.88L235.48 205.23L233.15 204.13L227.65 215.78L216 210.28L214.9 212.61L226.55 218.11L221.05 229.76L223.38 230.86L228.88 219.21L240.53 224.7L241.63 222.37Z" fill="black"/>
<path d="M292.12 246.2L280.47 240.7L285.97 229.05L283.64 227.96L278.14 239.61L266.49 234.11L265.39 236.44L277.04 241.94L271.54 253.59L273.87 254.68L279.37 243.03L291.02 248.53L292.12 246.2Z" fill="black"/>
<path d="M316.98 257.94L323.47 261H317.43L315.88 260.27L316.98 257.94Z" fill="black"/>
<path d="M336.46 252.88L332.63 261H329.78L334.13 251.78L336.46 252.88Z" fill="black"/>
<path d="M17.27 174.51L16.17 176.84L4.52 171.34L1 178.8V172.76L2.19 170.24L1 169.68V166.83L3.29 167.91L8.79 156.26L11.12 157.36L5.62 169.01L17.27 174.51Z" fill="black"/>
<path d="M67.7598 198.34L56.1098 192.84L61.6098 181.19L59.2798 180.09L53.7798 191.74L42.1298 186.24L41.0298 188.57L52.6798 194.07L47.1798 205.72L49.5098 206.82L55.0098 195.17L66.6598 200.67L67.7598 198.34Z" fill="black"/>
<path d="M118.25 222.17L106.6 216.67L112.1 205.02L109.77 203.92L104.27 215.57L92.62 210.07L91.52 212.4L103.17 217.9L97.67 229.55L100 230.65L105.5 219L117.15 224.5L118.25 222.17Z" fill="black"/>
<path d="M168.74 246L157.09 240.5L162.59 228.85L160.26 227.75L154.76 239.4L143.11 233.9L142.01 236.23L153.66 241.73L148.16 253.38L150.49 254.48L155.99 242.83L167.64 248.33L168.74 246Z" fill="black"/>
<path d="M193.6 257.73L200.53 261H194.49L192.5 260.06L193.6 257.73Z" fill="black"/>
<path d="M213.08 252.68L209.15 261H206.3L210.75 251.58L213.08 252.68Z" fill="black"/>
<path d="M45.3599 245.79L33.7099 240.3L39.2099 228.65L36.8799 227.55L31.3799 239.2L19.7299 233.7L18.6299 236.03L30.2799 241.53L24.7899 253.18L27.1199 254.28L32.6099 242.63L44.2599 248.12L45.3599 245.79Z" fill="black"/>
<path d="M70.2201 257.53L77.5701 261H71.5301L69.1201 259.86L70.2201 257.53Z" fill="black"/>
<path d="M89.7001 252.48L85.6801 261H82.8301L87.3701 251.38L89.7001 252.48Z" fill="black"/>
<path d="M199 139H309C313.418 139 317 142.582 317 147V227C317 231.418 313.418 235 309 235H199C194.582 235 191 231.418 191 227V147C191 142.582 194.582 139 199 139Z" fill="white" stroke="#0070EF" stroke-width="4" stroke-miterlimit="10"/>
<path d="M247.76 200.03C247.79 189.51 250.46 186.25 255.39 183.08C259.27 180.6 262.22 178.18 262.22 174.39C262.22 170.6 259.3 168.24 255.64 168.24C254.266 168.24 252.94 168.608 251.814 169.295C248.49 171.325 245.449 175.16 241.555 175.16V175.16C237.554 175.16 234.137 171.776 235.528 168.025C238.51 159.981 246.488 156.32 255.76 156.32C268.55 156.32 277.83 162.4 277.83 173.67C277.83 181.09 273.89 185.59 267.93 189.09C263.24 191.88 260.98 194.52 260.98 200.01V200.01C260.98 200.711 260.411 201.28 259.71 201.28H249.03C248.328 201.28 247.76 200.711 247.76 200.01V200.01V200.03ZM246.55 213.59C246.49 209.18 250.15 205.61 254.62 205.61C259.09 205.61 262.63 209.18 262.69 213.59C262.63 218.06 258.87 221.66 254.62 221.66C250.15 221.66 246.49 218.06 246.55 213.59Z" fill="#0070EF"/>
</svg>
