<svg width="60" height="42" viewBox="0 0 60 42" fill="none" xmlns="http://www.w3.org/2000/svg">
<g clip-path="url(#clip0_818_11879)">
<path d="M35.0301 1.49618L30.6698 -0.562302L32.7283 -4.92253L31.8563 -5.33423L29.7978 -0.973997L25.4376 -3.03248L25.0259 -2.16043L29.3861 -0.10195L27.3276 4.25828L28.1997 4.66998L30.2582 0.309746L34.6184 2.36822L35.0301 1.49618Z" fill="black"/>
<path d="M53.9271 10.4149L49.5668 8.3564L51.6253 3.99617L50.7533 3.58447L48.6948 7.94471L44.3345 5.88623L43.9229 6.75827L48.2831 8.81675L46.2246 13.177L47.0967 13.5887L49.1551 9.22845L53.5154 11.2869L53.9271 10.4149Z" fill="black"/>
<path d="M7.74981 10.3363L3.38958 8.27779L5.44806 3.91755L4.57601 3.50586L2.51753 7.86609L-1.8427 5.80761L-2.25439 6.67966L2.10584 8.73814L0.0511034 13.0984L0.923148 13.5101L2.97789 9.14984L7.33812 11.2083L7.74981 10.3363Z" fill="black"/>
<path d="M26.6468 19.2552L22.2866 17.1967L24.345 12.8365L23.473 12.4248L21.4145 16.785L17.0543 14.7266L16.6426 15.5986L21.0028 17.6571L18.9481 22.0173L19.8201 22.429L21.8749 18.0688L26.2351 20.1273L26.6468 19.2552Z" fill="black"/>
<path d="M45.5433 28.1742L41.183 26.1157L43.2415 21.7554L42.3695 21.3438L40.311 25.704L35.9508 23.6455L35.5391 24.5176L39.8993 26.576L37.8446 30.9363L38.7166 31.348L40.7713 26.9877L45.1316 29.0462L45.5433 28.1742Z" fill="black"/>
<path d="M64.4402 37.0929L60.08 35.0344L62.1385 30.6741L61.2664 30.2625L59.208 34.6227L54.8477 32.5642L54.436 33.4363L58.7963 35.4947L56.7415 39.855L57.6136 40.2667L59.6683 35.9064L64.0286 37.9649L64.4402 37.0929Z" fill="black"/>
<path d="M18.2664 37.0179L13.9062 34.9594L15.9647 30.5992L15.0926 30.1875L13.0341 34.5477L8.6739 32.4893L8.26221 33.3613L12.6224 35.4198L10.564 39.78L11.436 40.1917L13.4945 35.8315L17.8547 37.8862L18.2664 37.0179Z" fill="black"/>
<path d="M37.1634 45.9331L32.8032 43.8784L34.8616 39.5181L33.9896 39.1064L31.9311 43.4667L27.5709 41.4082L27.1592 42.2802L31.5194 44.3387L29.4609 48.699L30.333 49.1107L32.3915 44.7504L36.7517 46.8052L37.1634 45.9331Z" fill="black"/>
</g>
<rect x="0.5" y="0.5" width="59" height="41" stroke="black"/>
<defs>
<clipPath id="clip0_818_11879">
<rect width="60" height="42" fill="white"/>
</clipPath>
</defs>
</svg>
