<svg width="60" height="42" viewBox="0 0 60 42" fill="none" xmlns="http://www.w3.org/2000/svg">
<g clip-path="url(#clip0_818_6072)">
<rect width="60" height="42" fill="white"/>
<path d="M54.0543 -12.5859L42.0889 -23.5957L31.079 -11.6303L43.0445 -0.620451L54.0543 -12.5859Z" fill="white" stroke="black" stroke-linecap="round" stroke-linejoin="round"/>
<path d="M65.3277 -2.21234L53.3623 -13.2222L42.3525 -1.25675L54.3179 9.75308L65.3277 -2.21234Z" fill="white" stroke="black" stroke-linecap="round" stroke-linejoin="round"/>
<path d="M76.609 8.16779L64.6436 -2.84204L53.6337 9.12338L65.5991 20.1332L76.609 8.16779Z" fill="white" stroke="black" stroke-linecap="round" stroke-linejoin="round"/>
<path d="M32.5147 -11.8173L20.5493 -22.8271L9.53948 -10.8617L21.5049 0.148098L32.5147 -11.8173Z" fill="white" stroke="black" stroke-linecap="round" stroke-linejoin="round"/>
<path d="M43.796 -1.43719L31.8306 -12.447L20.8207 -0.481603L32.7862 10.5282L43.796 -1.43719Z" fill="white" stroke="black" stroke-linecap="round" stroke-linejoin="round"/>
<path d="M55.0694 8.9361L43.104 -2.07373L32.0942 9.89169L44.0596 20.9015L55.0694 8.9361Z" fill="white" stroke="black" stroke-linecap="round" stroke-linejoin="round"/>
<path d="M66.3507 19.3162L54.3853 8.3064L43.3754 20.2718L55.3408 31.2816L66.3507 19.3162Z" fill="white" stroke="black" stroke-linecap="round" stroke-linejoin="round"/>
<path d="M77.6319 29.6964L65.6665 18.6865L54.6567 30.6519L66.6221 41.6618L77.6319 29.6964Z" fill="white" stroke="black" stroke-linecap="round" stroke-linejoin="round"/>
<path d="M10.9688 -11.0414L-0.996582 -22.0513L-12.0064 -10.0859L-0.0409972 0.923982L10.9688 -11.0414Z" fill="white" stroke="black" stroke-linecap="round" stroke-linejoin="round"/>
<path d="M22.2501 -0.661314L10.2847 -11.6711L-0.725166 0.294276L11.2402 11.3041L22.2501 -0.661314Z" fill="white" stroke="black" stroke-linecap="round" stroke-linejoin="round"/>
<path d="M33.5308 9.71882L21.5654 -1.29102L10.5556 10.6744L22.521 21.6842L33.5308 9.71882Z" fill="white" stroke="black" stroke-linecap="round" stroke-linejoin="round"/>
<path d="M44.8048 20.0921L32.8394 9.08228L21.8295 21.0477L33.7949 32.0575L44.8048 20.0921Z" fill="white" stroke="black" stroke-linecap="round" stroke-linejoin="round"/>
<path d="M56.0855 30.4722L44.1201 19.4624L33.1103 31.4278L45.0757 42.4376L56.0855 30.4722Z" fill="white" stroke="black" stroke-linecap="round" stroke-linejoin="round"/>
<path d="M67.3668 40.8524L55.4014 29.8425L44.3915 41.8079L56.3569 52.8178L67.3668 40.8524Z" fill="white" stroke="black" stroke-linecap="round" stroke-linejoin="round"/>
<path d="M78.6476 51.2325L66.6821 40.2227L55.6723 52.1881L67.6377 63.1979L78.6476 51.2325Z" fill="white" stroke="black" stroke-linecap="round" stroke-linejoin="round"/>
<path d="M0.710536 0.107002L-11.2549 -10.9028L-22.2647 1.06259L-10.2993 12.0724L0.710536 0.107002Z" fill="white" stroke="black" stroke-linecap="round" stroke-linejoin="round"/>
<path d="M11.9918 10.4871L0.0263672 -0.522705L-10.9835 11.4427L0.981946 22.4525L11.9918 10.4871Z" fill="white" stroke="black" stroke-linecap="round" stroke-linejoin="round"/>
<path d="M23.2725 20.8673L11.3071 9.85742L0.297295 21.8228L12.2627 32.8327L23.2725 20.8673Z" fill="white" stroke="black" stroke-linecap="round" stroke-linejoin="round"/>
<path d="M34.5465 31.2408L22.5811 20.231L11.5712 32.1964L23.5366 43.2062L34.5465 31.2408Z" fill="white" stroke="black" stroke-linecap="round" stroke-linejoin="round"/>
<path d="M45.8272 41.6209L33.8618 30.6111L22.852 42.5765L34.8174 53.5863L45.8272 41.6209Z" fill="white" stroke="black" stroke-linecap="round" stroke-linejoin="round"/>
<path d="M57.1085 52.0008L45.1431 40.991L34.1332 52.9564L46.0986 63.9662L57.1085 52.0008Z" fill="white" stroke="black" stroke-linecap="round" stroke-linejoin="round"/>
<path d="M1.73348 21.6358L-10.2319 10.626L-21.2418 22.5914L-9.27635 33.6012L1.73348 21.6358Z" fill="white" stroke="black" stroke-linecap="round" stroke-linejoin="round"/>
<path d="M13.0142 32.0159L1.04883 21.0061L-9.961 32.9715L2.00442 43.9813L13.0142 32.0159Z" fill="white" stroke="black" stroke-linecap="round" stroke-linejoin="round"/>
<path d="M24.2882 42.3892L12.3228 31.3794L1.31293 43.3448L13.2783 54.3546L24.2882 42.3892Z" fill="white" stroke="black" stroke-linecap="round" stroke-linejoin="round"/>
<path d="M35.5694 52.7693L23.604 41.7595L12.5942 53.7249L24.5596 64.7348L35.5694 52.7693Z" fill="white" stroke="black" stroke-linecap="round" stroke-linejoin="round"/>
<path d="M2.75643 43.1644L-9.20898 32.1545L-20.2188 44.12L-8.2534 55.1298L2.75643 43.1644Z" fill="white" stroke="black" stroke-linecap="round" stroke-linejoin="round"/>
<path d="M14.0299 53.5379L2.06445 42.5281L-8.94539 54.4935L3.02003 65.5033L14.0299 53.5379Z" fill="white" stroke="black" stroke-linecap="round" stroke-linejoin="round"/>
</g>
<defs>
<clipPath id="clip0_818_6072">
<rect width="60" height="42" fill="white"/>
</clipPath>
</defs>
</svg>
